<svg xmlns="http://www.w3.org/2000/svg" width="59" height="73" viewBox="0 0 59 73" fill="none">
<path d="M7.24594 68.1672C5.15394 68.1672 3.42328 67.5083 2.05397 66.1907C0.684656 64.8603 0 63.1499 0 61.0593C0 58.9434 0.690994 57.2393 2.07298 55.947C3.46765 54.6419 5.21099 53.9894 7.30299 53.9894C8.27926 53.9894 9.22383 54.1668 10.1367 54.5216C11.0623 54.8637 11.7976 55.3451 12.3428 55.966L10.1367 58.1705C9.84509 57.7651 9.45205 57.461 8.95758 57.2583C8.47579 57.0429 7.96229 56.9352 7.4171 56.9352C6.28869 56.9352 5.3568 57.328 4.62142 58.1135C3.89873 58.8864 3.53739 59.8683 3.53739 61.0593C3.53739 62.2756 3.8924 63.2702 4.60241 64.0431C5.31242 64.8033 6.23164 65.1834 7.36005 65.1834C8.61525 65.1834 9.56617 64.7273 10.2128 63.815L12.476 65.9436C11.1954 67.426 9.45205 68.1672 7.24594 68.1672Z" fill="#00160A"/>
<path d="M14.5434 72.3673C13.9602 72.3673 13.3897 72.2976 12.8318 72.1582L13.1741 69.5356C13.5418 69.6496 13.8778 69.7066 14.1821 69.7066C14.6385 69.7066 14.9745 69.6052 15.1901 69.4025C15.4183 69.2125 15.6148 68.8894 15.7796 68.4333L16.0839 67.6541L12.1281 58.3416H15.5894L17.7005 64.4232H17.7575L19.6403 58.3416H22.9495L18.7084 69.2315C18.3027 70.2958 17.7892 71.0813 17.168 71.5881C16.5467 72.1076 15.6719 72.3673 14.5434 72.3673Z" fill="#00160A"/>
<path d="M24.1549 72.3673V58.3416H27.1218V59.5009H27.1788C27.4831 59.0828 27.8952 58.7407 28.415 58.4746C28.9475 58.2086 29.5434 58.0755 30.2027 58.0755C31.534 58.0755 32.6117 58.5633 33.4358 59.5389C34.2726 60.5018 34.691 61.6675 34.691 63.0358C34.691 64.4295 34.279 65.6205 33.4548 66.6088C32.6434 67.5844 31.553 68.0722 30.1837 68.0722C29.6005 68.0722 29.0489 67.9581 28.5291 67.7301C28.0093 67.4893 27.6036 67.1663 27.3119 66.7608H27.2739V72.3673H24.1549ZM29.442 65.4875C30.1393 65.4875 30.6845 65.2467 31.0776 64.7653C31.4706 64.2838 31.6671 63.7073 31.6671 63.0358C31.6671 62.377 31.4706 61.8132 31.0776 61.3444C30.6845 60.8629 30.1393 60.6222 29.442 60.6222C28.77 60.6222 28.2185 60.8693 27.7874 61.3634C27.369 61.8575 27.1598 62.4213 27.1598 63.0548C27.1598 63.701 27.369 64.2712 27.7874 64.7653C28.2185 65.2467 28.77 65.4875 29.442 65.4875Z" fill="#00160A"/>
<path d="M36.8254 67.8061V54.3505H45.2885V57.1253H40.0775V67.8061H36.8254Z" fill="#00160A"/>
<path d="M48.9394 68.0341C48.0899 68.0341 47.3735 67.9581 46.7903 67.8061L47.1897 65.1264C47.6335 65.2658 48.0392 65.3354 48.4069 65.3354C48.952 65.3354 49.3641 65.2024 49.643 64.9363C49.922 64.6576 50.2263 64.1951 50.5559 63.549L50.613 63.4349L45.4781 54.3505H49.2246L52.3817 60.4892L55.3485 54.3505H59L53.9602 63.9291C53.6559 64.4992 53.4086 64.949 53.2185 65.2784C53.0283 65.6078 52.7747 65.9753 52.4577 66.3807C52.1535 66.7862 51.8492 67.0902 51.5449 67.293C51.2406 67.4957 50.8666 67.6667 50.4228 67.8061C49.979 67.9581 49.4846 68.0341 48.9394 68.0341Z" fill="#00160A"/>
<path fill-rule="evenodd" clip-rule="evenodd" d="M8.36567 30.2806C8.36567 19.2596 17.3062 10.3254 28.3348 10.3254V20.0179C22.6629 20.0179 18.065 24.6127 18.065 30.2806C18.065 35.9486 22.6629 40.5434 28.3348 40.5434C34.0067 40.5434 38.6046 35.9486 38.6046 30.2806H48.3039C48.3039 41.3016 39.3634 50.2359 28.3348 50.2359C17.3062 50.2359 8.36567 41.3016 8.36567 30.2806Z" fill="#1143C0"/>
<path d="M48.3039 20.5881C48.3039 9.5671 39.3634 0.632812 28.3348 0.632812V10.3254C34.0067 10.3254 38.6046 14.9202 38.6046 20.5881H48.3039Z" fill="#0D9739"/>
</svg>